<svg xmlns="http://www.w3.org/2000/svg" width="42" height="42" viewBox="0 0 42 42">
  <g id="faq" transform="translate(-0.097 -0.097)">
    <g id="XMLID_22_" transform="translate(-0.228 -0.228)">
      <g id="Group_87" data-name="Group 87">
        <g id="XMLID_1117_">
          <g id="XMLID_1118_">
            <g id="XMLID_1119_">
              <g id="XMLID_1136_">
                <g id="XMLID_1145_">
                  <g id="XMLID_1146_">
                    <g id="XMLID_1147_">
                      <g id="XMLID_1148_">
                        <g id="XMLID_1149_">
                          <g id="XMLID_1150_">
                            <g id="XMLID_1151_">
                              <g id="XMLID_1152_">
                                <g id="XMLID_1153_">
                                  <g id="XMLID_1154_">
                                    <circle id="Ellipse_13" data-name="Ellipse 13" cx="21" cy="21" r="21" transform="translate(0.325 0.325)" fill="#fedd55"/>
                                  </g>
                                </g>
                              </g>
                            </g>
                          </g>
                        </g>
                      </g>
                    </g>
                  </g>
                </g>
              </g>
            </g>
          </g>
        </g>
      </g>
    </g>
    <path id="Path_220" data-name="Path 220" d="M104.523,125.795l-4.716-4.716-4.423-1.128-8.942-8.938L68.16,123.734l2.848,2.857-.484,1.225,16.019,16.019a21.1,21.1,0,0,0,17.98-18.041Z" transform="translate(-62.534 -101.856)" fill="#fcc63d"/>
    <g id="Group_88" data-name="Group 88" transform="translate(4.202 7.732)">
      <path id="Path_221" data-name="Path 221" d="M229.713,215.947H217.328a4.2,4.2,0,0,0-4.184,4.184v6.826a4.2,4.2,0,0,0,4.184,4.184h7.2l5.582,3.035v-3.054a4.2,4.2,0,0,0,3.788-4.165v-6.826A4.2,4.2,0,0,0,229.713,215.947Z" transform="translate(-199.779 -205.88)" fill="#ff807d"/>
      <path id="Path_222" data-name="Path 222" d="M349.507,220.134v6.826a4.2,4.2,0,0,1-3.788,4.165v3.054l-5.582-3.034H339.13V215.95h6.193A4.2,4.2,0,0,1,349.507,220.134Z" transform="translate(-315.389 -205.883)" fill="#fc3e53"/>
      <path id="Path_223" data-name="Path 223" d="M302.532,267.926l1.156-.436-2.912-7.717h-1.139l-2.938,7.714,1.154.44.708-1.858h3.271Zm-3.5-3.092,1.173-3.079,1.162,3.079Z" transform="translate(-276.452 -246.096)" fill="#fff"/>
      <path id="Path_224" data-name="Path 224" d="M339.712,259.77h-.582v2.01l.011-.028,1.161,3.079H339.13v1.235h1.638l.7,1.856,1.156-.436Z" transform="translate(-315.389 -246.094)" fill="#eae1dc"/>
      <path id="Path_225" data-name="Path 225" d="M67.437,93.718H55.052A4.2,4.2,0,0,0,50.868,97.9v6.826a4.2,4.2,0,0,0,3.788,4.165v3.054l5.582-3.035h7.2a4.2,4.2,0,0,0,4.184-4.184V97.9a4.2,4.2,0,0,0-4.185-4.184Z" transform="translate(-50.868 -93.718)" fill="#238cf8"/>
      <path id="Path_226" data-name="Path 226" d="M187.09,97.9v6.826a4.2,4.2,0,0,1-4.185,4.185H176.7V93.72h6.206A4.2,4.2,0,0,1,187.09,97.9Z" transform="translate(-166.337 -93.72)" fill="#0768dd"/>
      <path id="Path_227" data-name="Path 227" d="M136.057,142.391l-1.04-1.04a4.032,4.032,0,1,0-.864.883l1.031,1.031Zm-4.318-.59a2.8,2.8,0,1,1,2.388-1.34L133,139.33l-.874.873,1.142,1.142A2.783,2.783,0,0,1,131.739,141.8Z" transform="translate(-121.376 -131.568)" fill="#fff"/>
      <path id="Path_228" data-name="Path 228" d="M179.978,141.355a4.032,4.032,0,0,0-3.278-6.385v1.235a2.8,2.8,0,0,1,2.388,4.26l-1.131-1.131-.874.873,1.142,1.142a2.777,2.777,0,0,1-1.526.455v1.235a4.014,4.014,0,0,0,2.413-.8l1.031,1.031.874-.873Z" transform="translate(-166.337 -131.573)" fill="#eae1dc"/>
    </g>
  </g>
</svg>
