<svg xmlns="http://www.w3.org/2000/svg" width="39.764" height="42.679" viewBox="0 0 39.764 42.679">
  <g id="idea" transform="translate(-16.118)">
    <path id="Path_214" data-name="Path 214" d="M39.114,54.467a2.17,2.17,0,1,1-4.08,0H29.841v-4.9a2.17,2.17,0,1,1,0-3.212V40a13.744,13.744,0,0,0-5.787,26.2v6.351H35.628V66.2a13.744,13.744,0,0,0,7.957-11.733Z" transform="translate(0 -36.383)" fill="#f7d04f"/>
    <path id="Path_215" data-name="Path 215" d="M267.37,0V6.351a2.17,2.17,0,1,0,0,3.212v4.9h5.194a2.17,2.17,0,1,0,4.08,0h4.47v-.723A13.744,13.744,0,0,0,267.37,0Z" transform="translate(-225.232)" fill="#ef9f35"/>
    <g id="Group_86" data-name="Group 86" transform="translate(24.777 2.828)">
      <path id="Path_216" data-name="Path 216" d="M119.84,240a2.17,2.17,0,0,0-2.17,2.17v.723h-1.447v-.723a2.17,2.17,0,1,0-2.17,2.17h.723v10.851h4.34V244.34h.723a2.17,2.17,0,1,0,0-4.34Zm-5.787,2.893a.723.723,0,1,1,.723-.723v.723Zm3.617,10.851h-1.447v-9.4h1.447Zm2.17-10.851h-.723v-.723a.723.723,0,1,1,.723.723Z" transform="translate(-111.883 -221.127)" fill="#f9f6ed"/>
      <path id="Path_217" data-name="Path 217" d="M343.269,33.624a10.482,10.482,0,0,0-2.026-.984l.478-1.36a11.4,11.4,0,0,1,2.315,1.121Z" transform="translate(-320.504 -31.28)" fill="#f9f6ed"/>
      <path id="Path_218" data-name="Path 218" d="M382.777,63.947a10.171,10.171,0,0,0-2.893-4.731l.984-1.056a11.53,11.53,0,0,1,3.291,5.4Z" transform="translate(-355.65 -55.729)" fill="#f9f6ed"/>
    </g>
    <path id="Path_219" data-name="Path 219" d="M95.8,394.17a2.17,2.17,0,0,0-2.17-2.17H82.053a3.9,3.9,0,0,0,0,7.234H93.627a59.914,59.914,0,0,0,2.17-5.064Z" transform="translate(-57.999 -356.555)" fill="#1895aa"/>
  </g>
</svg>
