<svg xmlns="http://www.w3.org/2000/svg" width="360" height="600" viewBox="0 0 360 600">
  <g id="login_bg" transform="translate(-0.5 -16.5)">
    <g id="BACKGROUND" transform="translate(0.5 16.886)">
      <rect id="Rectangle_2" data-name="Rectangle 2" width="360" height="600" transform="translate(0 -0.386)" fill="#24b273"/>
    </g>
    <g id="OBJECTS" transform="translate(23.26 35.797)">
      <path id="Path_55" data-name="Path 55" d="M279.73,67.5a7,7,0,0,0-2.07-3.5l-1.54-1.11a7.29,7.29,0,0,0-3.8-.88A7.37,7.37,0,0,0,269,63a7.9,7.9,0,0,0-1.21-1.45l-1.65-1.2a7.9,7.9,0,0,0-4.07-.94,6.44,6.44,0,0,0-1.6.22,7,7,0,0,0-.84-1.94,7.22,7.22,0,0,0-2.65-2.5c-.61-.25-1.23-.49-1.86-.69a7.14,7.14,0,0,0-6.81,2.06l-1.09,1.5a7.279,7.279,0,0,0-.58,1.46,6.81,6.81,0,0,0-2.12-.24,5.16,5.16,0,0,0-2.59.68,5.27,5.27,0,0,0-2.2,1.51,5.11,5.11,0,0,0-1.39,2.34v.09l-.11-.08a6.92,6.92,0,0,0-3.56-.83,7.77,7.77,0,0,0-4.71,2.16,5.08,5.08,0,0,0-1.37,2.3h51.22Z" transform="translate(-23.26 -35.797)" fill="#b7c9ff"/>
      <path id="Path_56" data-name="Path 56" d="M252,597.5,356.5,607l-99.07,6.24Z" transform="translate(-23.26 -59.797)" fill="#b7c9ff"/>
      <path id="Path_57" data-name="Path 57" d="M356.5,607,239.52,589.5l12.48,8Z" transform="translate(-23.26 -59.797)" fill="#fff"/>
      <path id="Path_58" data-name="Path 58" d="M290.13,551.09l2.37,13.23,2.55,10.79-4.41-1.09-2.17-12.32Z" transform="translate(-23.26 -59.797)" fill="#d5dfff"/>
      <circle id="Ellipse_1" data-name="Ellipse 1" cx="2.92" cy="2.92" r="2.92" transform="translate(252.1 478.053)"/>
      <path id="Path_59" data-name="Path 59" d="M275.05,613l-1.25,2.52h7.79a1.89,1.89,0,0,0-2.11-1.41l-.94.14a.92.92,0,0,1-.84-1.27h-2.65Z" transform="translate(-23.26 -59.797)" fill="#4b78ff"/>
      <path id="Path_60" data-name="Path 60" d="M288.51,598.93l-1.24,2.52h7.78a1.89,1.89,0,0,0-2.11-1.41l-.93.14a.91.91,0,0,1-.84-1.26h-2.66Z" transform="translate(-23.26 -59.797)"/>
      <path id="Path_61" data-name="Path 61" d="M286.37,569.12h-8.08l-1.19,3.42a12.57,12.57,0,0,0-1,7.1l1.18,9.49h0a18,18,0,0,0-2,7.9l-.23,16h2.65L285,578.1Z" transform="translate(-23.26 -59.797)" fill="#ff63be"/>
      <path id="Path_62" data-name="Path 62" d="M288.51,598.93h2.66l8.1-13.81a4.72,4.72,0,0,0-.41-5.38l-8.22-10L284,570l-.41,5.86,12.76,5.67S291.16,586.29,288.51,598.93Z" transform="translate(-23.26 -59.797)" fill="#ff63be"/>
      <path id="Path_63" data-name="Path 63" d="M277.1,587.87c2,0,3.21-.33,9.79-1.89a38.42,38.42,0,0,0,12.26-5.8c-.09-.14-.18-.29-.29-.43l-8.22-10-4.39.2.12-.79h-8.08l-1.19,3.42a12.57,12.57,0,0,0-1,7.1Z" transform="translate(-23.26 -59.797)"/>
      <path id="Path_64" data-name="Path 64" d="M285.84,547.38l-7.9.42A4.81,4.81,0,0,0,275,549h0a4.81,4.81,0,0,0-1.5,2.68l-4.12,26.08,3.62.6,3.4-18,.23.84a23,23,0,0,1,.71,9l-.27,2.38,5.93-.19a13.11,13.11,0,0,0,7.63-2.73h0l-.88-7.18a3.31,3.31,0,0,1,.7-2.44l.07-.09a4.09,4.09,0,0,0,.81-3.48l-1.21-5.43a4.34,4.34,0,0,0-4.29-3.71h0" transform="translate(-23.26 -59.797)" fill="#fff"/>
      <path id="Path_65" data-name="Path 65" d="M290.9,535.92c0-2.2-2.09-4.71-4.94-5.36a6.42,6.42,0,0,0-7,3.06l-.23.4a6.4,6.4,0,0,0-.49,5.25l2.06,5.45.12,3.07.3.37a3,3,0,0,0,5.12-.78l-.12-3.19h2.43a3.17,3.17,0,0,0,3-3.28h0l-.08-2.33Z" transform="translate(-23.26 -59.797)" fill="#ff63be"/>
      <path id="Path_66" data-name="Path 66" d="M288.47,540.77a1.4,1.4,0,1,1-2.8.1" transform="translate(-23.26 -59.797)" fill="#fff"/>
      <path id="Path_67" data-name="Path 67" d="M282.22,529.2h0a6.76,6.76,0,0,1,8.36,4,4.94,4.94,0,0,1,.35,1.34h0a5.191,5.191,0,0,1-.62.28,5.6,5.6,0,0,0-2.14,1.35h0a5.37,5.37,0,0,1-4,1.63l-2.49-.06-2,5.41s-1.46-3.25-2-4.53a7,7,0,0,1,4.54-9.42Z" transform="translate(-23.26 -59.797)"/>
      <path id="Path_68" data-name="Path 68" d="M282.36,538.84a1.29,1.29,0,1,1-.838-1.167A1.28,1.28,0,0,1,282.36,538.84Z" transform="translate(-23.26 -59.797)" fill="#ff63be"/>
      <path id="Path_69" data-name="Path 69" d="M266.81,583.49l.59-2.8,6.55,1.4-.6,2.79" transform="translate(-23.26 -59.797)" fill="none"/>
      <rect id="Rectangle_3" data-name="Rectangle 3" width="12.81" height="19.89" transform="translate(234.523 534.358) rotate(-77.98)" fill="#2555e6"/>
      <rect id="Rectangle_4" data-name="Rectangle 4" width="0.9" height="19.89" transform="translate(235.243 530.951) rotate(-77.98)" fill="#1c40ad"/>
      <rect id="Rectangle_5" data-name="Rectangle 5" width="2.43" height="2.43" transform="translate(244.145 531.174) rotate(12.02)" fill="#ffcc38"/>
      <path id="Path_70" data-name="Path 70" d="M273.14,578l-3.61-.84-.2.26a4.709,4.709,0,0,0-.87,1.73l-.1.38h0a.46.46,0,0,0-.07.16l-.29,1.12a.69.69,0,0,0,.5.85.71.71,0,0,0,.85-.5l-.12.54a.69.69,0,0,0,1.26.53v.08a.7.7,0,1,0,1.35.36l.08-.31a.77.77,0,0,0,.53.89.69.69,0,0,0,.85-.5l.31-1.25h0v-.15A4.19,4.19,0,0,0,273.14,578Z" transform="translate(-23.26 -59.797)" fill="#ff63be"/>
      <path id="Path_71" data-name="Path 71" d="M280.36,546.28,279,547.75s.62,3.15,3.37,3.69l.67-2.23A3.66,3.66,0,0,1,280.36,546.28Z" transform="translate(-23.26 -59.797)" fill="#4b78ff"/>
      <path id="Path_72" data-name="Path 72" d="M285.82,546.1l1.18,1.06a3.22,3.22,0,0,1-1.86,3.56l-.81-1.72A2.74,2.74,0,0,0,285.82,546.1Z" transform="translate(-23.26 -59.797)" fill="#4b78ff"/>
      <rect id="Rectangle_6" data-name="Rectangle 6" width="0.88" height="4.19" transform="translate(250.341 517.514) rotate(101.65)" fill="#4b78ff"/>
      <path id="Path_73" data-name="Path 73" d="M250.65,607.16H356.5L257.43,634.4Z" transform="translate(-23.26 -59.797)" fill="#dbe4ff"/>
      <path id="Path_74" data-name="Path 74" d="M250.65,607.16H356.5L222.69,630.37Z" transform="translate(-23.26 -59.797)" fill="#fff"/>
      <path id="Path_75" data-name="Path 75" d="M284.64,552a.507.507,0,1,1-.51-.51A.51.51,0,0,1,284.64,552Z" transform="translate(-23.26 -59.797)" fill="#4b78ff"/>
      <path id="Path_76" data-name="Path 76" d="M285.14,554.08a.505.505,0,0,1-1.01,0,.51.51,0,0,1,.51-.51.5.5,0,0,1,.5.51Z" transform="translate(-23.26 -59.797)" fill="#4b78ff"/>
      <path id="Path_77" data-name="Path 77" d="M92.11,145.65,208.5,156.49,98.16,163.61Z" transform="translate(-23.26 -40.338)" fill="#b7c9ff"/>
      <path id="Path_78" data-name="Path 78" d="M208.5,156.49,78.2,136.52l13.91,9.13Z" transform="translate(-23.26 -39.975)" fill="#fff"/>
      <path id="Path_79" data-name="Path 79" d="M136.78,94.37l3.28,25.74-4.91-1.24-1.61-11.92Z" transform="translate(-23.26 -35.797)" fill="#1c40ad"/>
      <path id="Path_80" data-name="Path 80" d="M117.78,163.36l-1.39,2.88h8.67a2.1,2.1,0,0,0-2.35-1.6l-1,.16a1,1,0,0,1-.93-1.45h-3Z" transform="translate(-23.26 -40.936)" fill="#4b78ff"/>
      <path id="Path_81" data-name="Path 81" d="M132.78,147.28l-1.39,2.88h8.67a2.1,2.1,0,0,0-2.35-1.61l-1,.16a1,1,0,0,1-.94-1.45h-2.95Z" transform="translate(-23.26 -35.797)" fill="#2555e6"/>
      <path id="Path_82" data-name="Path 82" d="M130.39,113.28h-9l-1.33,3.91a14.69,14.69,0,0,0-1.15,8.09l1.33,10.83h0a20.73,20.73,0,0,0-2.2,9l-.26,18.26h3l8.11-39.84Z" transform="translate(-23.26 -35.797)"/>
      <path id="Path_83" data-name="Path 83" d="M132.78,147.28h2.95l9-15.74a5.51,5.51,0,0,0-.46-6.14L135.15,114l-7.35.35-.46,6.69,10.94,6.56S135.73,132.86,132.78,147.28Z" transform="translate(-23.26 -35.797)"/>
      <path id="Path_84" data-name="Path 84" d="M131.77,88.48,119,89a5.24,5.24,0,0,0-3.26,1.38h0a5.48,5.48,0,0,0-1.66,3.06l-2.62,29.75,4,.68,3.12-20.49,1.42,13.9,6.61-.21a14.46,14.46,0,0,0,8.5-3.12h0l.58-1.41c0-.21,1.08-18,1.06-18.17l-.24-1.65a4.86,4.86,0,0,0-4.78-4.24h0" transform="translate(-23.26 -35.797)" fill="#b7c9ff"/>
      <path id="Path_85" data-name="Path 85" d="M124.67,88.75,119,89a5.24,5.24,0,0,0-3.26,1.38,5.48,5.48,0,0,0-1.66,3.06l-2.62,29.75,4,.68,3.12-20.49-.85,17.45a12.46,12.46,0,0,0,6.36,1.6S124.44,98.21,124.67,88.75Z" transform="translate(-23.26 -35.797)" fill="#2555e6"/>
      <path id="Path_86" data-name="Path 86" d="M136.79,94.37l-.24-1.65a4.86,4.86,0,0,0-4.78-4.24l-2,.14s2.82,22,2.56,31.49c3-.15,4.69-3.78,4.69-3.78C137,116.12,136.81,94.58,136.79,94.37Z" transform="translate(-23.26 -35.797)" fill="#2555e6"/>
      <path id="Path_87" data-name="Path 87" d="M135.43,75.41c-.05-2.51-2.32-5.37-5.5-6.12a7.08,7.08,0,0,0-7.79,3.49l-.26.47a7.48,7.48,0,0,0-.55,6l2.3,6.21.13,3.51.33.42a3.29,3.29,0,0,0,5.71-.89l-.13-3.64h2.7a3.58,3.58,0,0,0,3.35-3.74h0l-.09-2.66Z" transform="translate(-23.26 -35.797)" fill="#ff63be"/>
      <path id="Path_88" data-name="Path 88" d="M132.73,80.94a1.561,1.561,0,1,1-3.12.11" transform="translate(-23.26 -35.797)" fill="#fff"/>
      <path id="Path_89" data-name="Path 89" d="M131.11,74.62a3.22,3.22,0,0,0,3.8-1.47,1.08,1.08,0,0,0,.16-.89,7.48,7.48,0,0,0-9.31-4.52h0a8,8,0,0,0-5,10.76c.6,1.46,2.22,5.17,2.22,5.17l2.19-6.17.69-1.54a3.18,3.18,0,0,1,3.85-1.77Z" transform="translate(-23.26 -35.797)"/>
      <path id="Path_90" data-name="Path 90" d="M125.93,78.74a1.44,1.44,0,1,1-.446-1.013,1.43,1.43,0,0,1,.446,1.013Z" transform="translate(-23.26 -35.797)" fill="#ff63be"/>
      <path id="Path_91" data-name="Path 91" d="M108.6,129.67l.66-3.19,7.29,1.59-.66,3.19" transform="translate(-23.26 -35.797)" fill="none"/>
      <path id="Path_92" data-name="Path 92" d="M120.22,146.56l-21.66-4.72,2.97-14.29,21.66,4.72Z" transform="translate(-23.26 -35.797)" fill="#2555e6"/>
      <path id="Path_93" data-name="Path 93" d="M121.03,142.68l-21.67-4.72.21-1.01,21.67,4.73Z" transform="translate(-23.26 -35.797)" fill="#1c40ad"/>
      <path id="Path_94" data-name="Path 94" d="M111.34,141.5l-2.66-.58.57-2.72,2.65.58Z" transform="translate(-23.26 -35.797)" fill="#ffcc38"/>
      <path id="Path_95" data-name="Path 95" d="M115.66,123.46l-4-1-.23.3a5.24,5.24,0,0,0-1,2l-.11.43h0a.751.751,0,0,0-.08.18l-.32,1.28a.8.8,0,0,0,.56,1,.77.77,0,0,0,.94-.57l-.13.62a.8.8,0,0,0,.55,1,.75.75,0,0,0,.85-.37v.09a.8.8,0,0,0,.56,1,.77.77,0,0,0,.94-.56l.1-.36a.87.87,0,0,0,.58,1,.78.78,0,0,0,1-.57l.35-1.43a.13.13,0,0,1,0-.06h0v-.18a4.82,4.82,0,0,0-.56-3.8Z" transform="translate(-23.26 -35.797)" fill="#ff63be"/>
      <path id="Path_96" data-name="Path 96" d="M111.41,122.64l.2-.98,4.56.97-.19.97Z" transform="translate(-23.26 -35.797)" fill="#fff"/>
      <path id="Path_97" data-name="Path 97" d="M129.74,86.55l1.48,1.68s-.25,3.4-2.88,4.3l-.85-1.91a6,6,0,0,0,2.25-4.07Z" transform="translate(-23.26 -35.797)" fill="#fff"/>
      <path id="Path_98" data-name="Path 98" d="M126.14,79.31h-1.17V75.55l1.89-2.08Z" transform="translate(-23.26 -35.797)"/>
      <path id="Path_99" data-name="Path 99" d="M122.41,88.83l-1.53.06L120.07,93a3.2,3.2,0,0,0,1.6,3.42h0l-1.22,6.07a3.22,3.22,0,0,0,.75,2.78l3.1,3.44.37-17.09Z" transform="translate(-23.26 -35.797)" fill="#1c40ad"/>
      <path id="Path_100" data-name="Path 100" d="M130.8,88.29l1.7.24,1.39,3.69a3.23,3.23,0,0,1-.4,3l-.58.8,1.79,5.88a3.25,3.25,0,0,1-.3,2.57l-2.51,4.25-1.82-17.48Z" transform="translate(-23.26 -35.797)" fill="#1c40ad"/>
      <path id="Path_101" data-name="Path 101" d="M123.7,87.22l-1.48,1.68s.74,3.09,3.37,4l.8-2.23a4.15,4.15,0,0,1-2.69-3.45Z" transform="translate(-23.26 -35.797)" fill="#fff"/>
      <path id="Path_102" data-name="Path 102" d="M90.6,156.65H208.5L98.16,187.72Z" transform="translate(-23.26 -40.908)" fill="#dbe4ff"/>
      <path id="Path_103" data-name="Path 103" d="M90.6,156.65H208.5L59.46,183.12Z" transform="translate(-23.26 -40.867)" fill="#fff"/>
      <path id="Path_104" data-name="Path 104" d="M94,580.5a9.75,9.75,0,0,0-6-5.6l-.06-.25a3.33,3.33,0,0,0-.49-1.59A5,5,0,0,0,86,571l-1.37-1L83,569.41l-1.74-.16a4.93,4.93,0,0,0-2.42.63l-.21.09a7.15,7.15,0,0,0,.34-2.85l-.42-2.43A9.55,9.55,0,0,0,76,560.61l-2-1.44A9.531,9.531,0,0,0,69.13,558a7.179,7.179,0,0,0-3.53.93,7.11,7.11,0,0,0-3,2,7,7,0,0,0-1.89,3.18A7.11,7.11,0,0,0,60,567a8.118,8.118,0,0,0-2-.17,6.4,6.4,0,0,0-3.16.83,7.67,7.67,0,0,0-4.36,4.68l-.11.27a11.19,11.19,0,0,0-4.1-.75,10.09,10.09,0,0,0-7.62,3.9,10.05,10.05,0,0,0-1.74-.08,7.48,7.48,0,0,0-3.72,1,9.217,9.217,0,0,0-4.48,3.82Z" transform="translate(-23.26 -59.797)" fill="#fff"/>
      <path id="Path_105" data-name="Path 105" d="M192.5,628.5a12,12,0,0,0-.35-1.55l-.08-.25-1.2-2.62a8.5,8.5,0,0,0-3-3.09,5.63,5.63,0,0,0-2.6-1.39,8.57,8.57,0,0,0-4.42-.81l-2.88.5-2.62,1.2a8.487,8.487,0,0,0-.91.61,11.78,11.78,0,0,0-1.54-1.78l-2.43-1.76a11.651,11.651,0,0,0-6-1.39,13.06,13.06,0,0,0-7.94,3.63l-.17.17a10.769,10.769,0,0,0-1.84-2.28l-2.3-1.69a10.88,10.88,0,0,0-5.62-1.3h-.64a8.25,8.25,0,0,0-8.35-7.09c-4,0-7.23,3.45-7.67,7.24a8.231,8.231,0,0,0-1.65-.11,5.8,5.8,0,0,0-2.86.76,5.86,5.86,0,0,0-2.41,1.65c-.11.11-.19.21-.29.32a8.58,8.58,0,0,0-4.09-.86,9.57,9.57,0,0,0-5.86,2.68,6.26,6.26,0,0,0-1.7,2.87,6.35,6.35,0,0,0-.63,3,8.46,8.46,0,0,0-3.81-.91,7.58,7.58,0,0,0-6.51,4.17Z" transform="translate(-23.26 -59.797)" fill="#dbe4ff"/>
      <path id="Path_106" data-name="Path 106" d="M78.62,52.5a7.289,7.289,0,0,0,.08-1.69l-.39-2.2A8.6,8.6,0,0,0,76,44.9l-1.81-1.31a8.69,8.69,0,0,0-4.47-1,6.46,6.46,0,0,0-3.2.85l-.45.19a4.56,4.56,0,0,0-.48-.93v-.08a5.75,5.75,0,0,0-5.18-2.73l-1.49.26a6,6,0,0,0-2.51,1.56,4.69,4.69,0,0,0-.87,1.22c-.08-.5-.17-1-.26-1.5A8,8,0,0,0,53.09,38l-1.66-1.2a8,8,0,0,0-4.1-1,6,6,0,0,0-2.94.78,6,6,0,0,0-2.49,1.7A5.91,5.91,0,0,0,40.32,41a5.91,5.91,0,0,0-.57,3.11c.1.61.21,1.21.32,1.82a3.85,3.85,0,0,0-1.69-.4,2.44,2.44,0,0,0-1.34,0,3.85,3.85,0,0,0-1.86.67h0l-1,.85a3.8,3.8,0,0,0-1,1.75c0,.09-.08.17-.12.26a8.21,8.21,0,0,0-3.32-.68,7.75,7.75,0,0,0-6.48,4.08Z" transform="translate(-23.26 -35.797)" fill="#b7c9ff"/>
      <path id="Path_107" data-name="Path 107" d="M303.94,147.5l-.09-.36a9.09,9.09,0,0,0-6.59-6.1,8.9,8.9,0,0,0-4.72.17,9.239,9.239,0,0,0-1.48.62,5.346,5.346,0,0,0-.11-.68,8.17,8.17,0,0,0-2.18-3.47l-1.69-1.23a8,8,0,0,0-4.19-1,9,9,0,0,0-5.53,2.53,5.94,5.94,0,0,0-1.61,2.71,5.861,5.861,0,0,0-.59,2.6,6.88,6.88,0,0,0-3.37-.72,6.65,6.65,0,0,0-6.11,4.48c-.06.13-.11.27-.16.41Z" transform="translate(-23.26 -35.797)" fill="#b7c9ff"/>
      <line id="Line_1" data-name="Line 1" x1="28" transform="translate(12.24 533.203)" fill="none"/>
      <line id="Line_2" data-name="Line 2" x1="28" transform="translate(0.24 539.203)" fill="none"/>
      <g id="Group_3" data-name="Group 3" transform="translate(25.24 121.368)" opacity="0.7">
        <line id="Line_3" data-name="Line 3" x1="18.42" transform="translate(7.89)" fill="none"/>
        <line id="Line_4" data-name="Line 4" x1="18.42" transform="translate(0 4.04)" fill="none"/>
      </g>
      <line id="Line_5" data-name="Line 5" x2="14.59" transform="translate(191.67 542.673)" fill="none"/>
      <line id="Line_6" data-name="Line 6" x2="14.58" transform="translate(186.86 546.573)" fill="none"/>
    </g>
  </g>
</svg>
