<svg xmlns="http://www.w3.org/2000/svg" width="13.673" height="13.672" viewBox="0 0 13.673 13.672">
  <path id="pen_outline" d="M10.447.446a1.625,1.625,0,0,0-2.3,0l-.575.578L1.455,7.14l-.013.013s0,.007-.007.007-.016.019-.023.029,0,0,0,.007l-.016.026s0,.006-.006.01-.007.016-.01.026,0,0,0,.007L.016,11.347a.32.32,0,0,0,.078.331.327.327,0,0,0,.231.094.383.383,0,0,0,.1-.016L4.509,10.4s0,0,.007,0a.118.118,0,0,0,.029-.013l.007,0,.032-.02c.01-.006.02-.016.029-.023s.006,0,.006-.007.01-.006.013-.013l6.695-6.695a1.625,1.625,0,0,0,0-2.3ZM4.4,9.632,2.144,7.371,7.8,1.713l2.261,2.261ZM1.825,7.972,3.8,9.947l-2.966.987Zm9.043-4.808-.344.348L8.264,1.251,8.611.9A.974.974,0,0,1,9.989.9l.883.883a.978.978,0,0,1,0,1.377Zm0,0" transform="matrix(0.985, -0.174, 0.174, 0.985, 0.006, 2.078)" fill="#008147"/>
</svg>
