<?xml version="1.0" encoding="iso-8859-1"?>
<!-- Generator: Adobe Illustrator 19.0.0, SVG Export Plug-In . SVG Version: 6.00 Build 0)  -->
<svg version="1.1" id="Layer_1" xmlns="http://www.w3.org/2000/svg" xmlns:xlink="http://www.w3.org/1999/xlink" x="0px" y="0px"
	 viewBox="0 0 511.999 511.999" style="enable-background:new 0 0 511.999 511.999;" xml:space="preserve">
<path style="fill:#F0C087;" d="M412.903,33.032H280.773c0,13.682-11.092,24.774-24.774,24.774
	c-13.682,0-24.774-11.092-24.774-24.774H99.096c-13.682,0-24.774,11.092-24.774,24.774v429.419
	c0,13.682,11.092,24.774,24.774,24.774h313.806c13.682,0,24.774-11.092,24.774-24.774V57.806
	C437.677,44.124,426.586,33.032,412.903,33.032z"/>
<path style="fill:#E6AF78;" d="M404.644,49.548h-49.548c-4.561,0-8.258-3.698-8.258-8.258v-8.258h-66.065
	c0,13.682-11.092,24.774-24.774,24.774c-13.682,0-24.774-11.092-24.774-24.774H165.16v8.258c0,4.56-3.697,8.258-8.258,8.258h-49.548
	c-9.121,0-16.516,7.394-16.516,16.516v396.387c0,9.121,7.395,16.516,16.516,16.516h297.29c9.121,0,16.516-7.395,16.516-16.516
	V66.065C421.161,56.943,413.766,49.548,404.644,49.548z"/>
<path style="fill:#FFFFFF;" d="M396.386,462.452H115.612c-4.561,0-8.258-3.697-8.258-8.258V74.323c0-4.561,3.697-8.258,8.258-8.258
	h280.774c4.561,0,8.258,3.697,8.258,8.258v379.871C404.644,458.754,400.948,462.452,396.386,462.452z"/>
<path style="fill:#C7CFE2;" d="M313.805,16.516h-29.355C278.729,6.684,268.195,0,255.999,0s-22.729,6.684-28.451,16.516h-29.355
	c-9.121,0-16.516,7.394-16.516,16.516v33.032c0,4.56,3.697,8.258,8.258,8.258h132.129c4.561,0,8.258-3.698,8.258-8.258V33.032
	C330.323,23.91,322.927,16.516,313.805,16.516z M255.999,45.419c-6.841,0-12.387-5.546-12.387-12.387s5.546-12.387,12.387-12.387
	c6.841,0,12.387,5.546,12.387,12.387S262.841,45.419,255.999,45.419z"/>
<path style="fill:#AFB9D2;" d="M322.065,74.323h-132.13c-4.561,0-8.258-3.697-8.258-8.258l0,0c0-4.561,3.697-8.258,8.258-8.258
	h132.129c4.561,0,8.258,3.697,8.258,8.258l0,0C330.323,70.625,326.625,74.323,322.065,74.323z"/>
<path style="fill:#00AAF0;" d="M280.773,148.645h82.581c4.561,0,8.258-3.697,8.258-8.258v-16.516c0-4.561-3.697-8.258-8.258-8.258
	h-82.581c-4.561,0-8.258,3.697-8.258,8.258v16.516C272.516,144.948,276.213,148.645,280.773,148.645z"/>
<path style="fill:#959CB5;" d="M363.354,189.935h-82.581c-4.565,0-8.258-3.694-8.258-8.258s3.694-8.258,8.258-8.258h82.581
	c4.565,0,8.258,3.694,8.258,8.258S367.919,189.935,363.354,189.935z"/>
<path style="fill:#AFB9D2;" d="M313.805,222.968h-33.032c-4.565,0-8.258-3.694-8.258-8.258c0-4.565,3.694-8.258,8.258-8.258h33.032
	c4.565,0,8.258,3.694,8.258,8.258C322.065,219.274,318.37,222.968,313.805,222.968z"/>
<path style="fill:#C7CFE2;" d="M363.354,289.032h-214.71c-4.565,0-8.258-3.694-8.258-8.258s3.694-8.258,8.258-8.258h214.71
	c4.565,0,8.258,3.694,8.258,8.258S367.919,289.032,363.354,289.032z"/>
<g>
	<path style="fill:#00AAF0;" d="M165.16,322.065h-16.516c-4.565,0-8.258-3.694-8.258-8.258s3.694-8.258,8.258-8.258h16.516
		c4.565,0,8.258,3.694,8.258,8.258S169.725,322.065,165.16,322.065z"/>
	<path style="fill:#00AAF0;" d="M165.16,421.161h-16.516c-4.565,0-8.258-3.694-8.258-8.258s3.694-8.258,8.258-8.258h16.516
		c4.565,0,8.258,3.694,8.258,8.258S169.725,421.161,165.16,421.161z"/>
	<path style="fill:#00AAF0;" d="M165.16,388.129h-16.516c-4.565,0-8.258-3.694-8.258-8.258s3.694-8.258,8.258-8.258h16.516
		c4.565,0,8.258,3.694,8.258,8.258S169.725,388.129,165.16,388.129z"/>
	<path style="fill:#00AAF0;" d="M165.16,355.097h-16.516c-4.565,0-8.258-3.694-8.258-8.258s3.694-8.258,8.258-8.258h16.516
		c4.565,0,8.258,3.694,8.258,8.258S169.725,355.097,165.16,355.097z"/>
</g>
<path style="fill:#C7CFE2;" d="M247.742,322.065h-49.548c-4.565,0-8.258-3.694-8.258-8.258s3.694-8.258,8.258-8.258h49.548
	c4.565,0,8.258,3.694,8.258,8.258S252.305,322.065,247.742,322.065z"/>
<path style="fill:#AFB9D2;" d="M280.773,421.161h-82.581c-4.565,0-8.258-3.694-8.258-8.258s3.694-8.258,8.258-8.258h82.581
	c4.565,0,8.258,3.694,8.258,8.258S285.339,421.161,280.773,421.161z"/>
<path style="fill:#C7CFE2;" d="M247.742,388.129h-49.548c-4.565,0-8.258-3.694-8.258-8.258s3.694-8.258,8.258-8.258h49.548
	c4.565,0,8.258,3.694,8.258,8.258S252.305,388.129,247.742,388.129z"/>
<path style="fill:#AFB9D2;" d="M280.773,355.097h-82.581c-4.565,0-8.258-3.694-8.258-8.258s3.694-8.258,8.258-8.258h82.581
	c4.565,0,8.258,3.694,8.258,8.258S285.339,355.097,280.773,355.097z"/>
<g>
	<path style="fill:#E4EAF8;" d="M363.354,355.097h-41.29c-4.565,0-8.258-3.694-8.258-8.258s3.694-8.258,8.258-8.258h41.29
		c4.565,0,8.258,3.694,8.258,8.258S367.919,355.097,363.354,355.097z"/>
	<path style="fill:#E4EAF8;" d="M363.354,322.065h-41.29c-4.565,0-8.258-3.694-8.258-8.258s3.694-8.258,8.258-8.258h41.29
		c4.565,0,8.258,3.694,8.258,8.258S367.919,322.065,363.354,322.065z"/>
	<path style="fill:#E4EAF8;" d="M363.354,388.129h-41.29c-4.565,0-8.258-3.694-8.258-8.258s3.694-8.258,8.258-8.258h41.29
		c4.565,0,8.258,3.694,8.258,8.258S367.919,388.129,363.354,388.129z"/>
	<path style="fill:#E4EAF8;" d="M363.354,421.161h-41.29c-4.565,0-8.258-3.694-8.258-8.258s3.694-8.258,8.258-8.258h41.29
		c4.565,0,8.258,3.694,8.258,8.258S367.919,421.161,363.354,421.161z"/>
</g>
<path style="fill:#E6AF78;" d="M238.613,206.991l-19.338-9.669c-2.798-1.399-4.565-4.258-4.565-7.386V173.42h-33.032v16.516
	c0,3.128-1.767,5.988-4.565,7.386l-19.338,9.669c-5.595,2.798-9.129,8.516-9.129,14.772v17.721c0,4.561,3.697,8.258,8.258,8.258
	h82.581c4.561,0,8.258-3.697,8.258-8.258v-17.721C247.742,215.507,244.207,209.789,238.613,206.991z"/>
<path style="fill:#D29B6E;" d="M181.676,173.419v16.516c0,1.762-0.607,3.403-1.597,4.782c5.618,2.217,11.717,3.476,18.113,3.476
	c6.397,0,12.495-1.259,18.113-3.476c-0.989-1.379-1.597-3.02-1.597-4.782v-16.516H181.676z"/>
<path style="fill:#00AAF0;" d="M238.611,206.991l-15.063-7.532c-6.059,7.328-15.104,12.097-25.356,12.097
	s-19.297-4.769-25.356-12.097l-15.063,7.532c-5.595,2.798-9.13,8.517-9.13,14.772v17.721c0,4.56,3.697,8.258,8.258,8.258h82.581
	c4.561,0,8.258-3.698,8.258-8.258v-17.721C247.742,215.507,244.207,209.789,238.611,206.991z"/>
<g>
	<path style="fill:#0096DC;" d="M173.419,239.484c0-5.199-2.448-10.094-6.607-13.213l-16.171-12.128
		c-1.22,2.324-1.996,4.895-1.996,7.62v17.721c0,4.561,3.697,8.258,8.258,8.258h16.516V239.484z"/>
	<path style="fill:#0096DC;" d="M222.967,239.484c0-5.199,2.448-10.094,6.606-13.213l16.171-12.128
		c1.22,2.324,1.996,4.895,1.996,7.62v17.721c0,4.561-3.697,8.258-8.258,8.258h-16.516L222.967,239.484L222.967,239.484z"/>
</g>
<path style="fill:#F0C087;" d="M198.193,181.677L198.193,181.677c-18.243,0-33.032-14.789-33.032-33.032v-16.516
	c0-13.682,11.092-24.774,24.774-24.774h16.516c13.682,0,24.774,11.092,24.774,24.774v16.516
	C231.225,166.888,216.436,181.677,198.193,181.677z"/>
<path style="fill:#E6AF78;" d="M189.936,148.645v-16.516c0-12.268,8.939-22.383,20.645-24.358c-1.35-0.228-2.715-0.416-4.129-0.416
	h-16.516c-13.682,0-24.774,11.092-24.774,24.774v16.516c0,18.243,14.789,33.032,33.032,33.032c4.388,0,8.556-0.896,12.387-2.45
	C198.484,174.323,189.936,162.501,189.936,148.645z"/>
<path style="fill:#694B4B;" d="M165.16,132.129c0,0,24.774,8.258,66.064,8.258v-8.258c0-13.682-11.092-24.774-24.774-24.774h-16.516
	C176.253,107.355,165.16,118.447,165.16,132.129L165.16,132.129z"/>
<path style="fill:#5A4146;" d="M189.936,132.129c0-12.268,8.939-22.383,20.645-24.358c-1.35-0.228-2.715-0.416-4.129-0.416h-16.516
	c-13.682,0-24.774,11.092-24.774,24.774c0,0,8.882,2.937,24.774,5.308V132.129z"/>
<g>
</g>
<g>
</g>
<g>
</g>
<g>
</g>
<g>
</g>
<g>
</g>
<g>
</g>
<g>
</g>
<g>
</g>
<g>
</g>
<g>
</g>
<g>
</g>
<g>
</g>
<g>
</g>
<g>
</g>
</svg>
