<svg xmlns="http://www.w3.org/2000/svg" width="10.046" height="10.554" viewBox="0 0 10.046 10.554">
  <path id="_x30_6-Movie_Clapper" d="M8.692,4.462a1,1,0,0,0-.163-.44l7.722-2.578L15.846.23A.337.337,0,0,0,15.42.017l-8.4,2.8a.337.337,0,0,0-.213.426l.2.6A1.007,1.007,0,0,0,7.2,5.461v4.756a.337.337,0,0,0,.337.337h8.856a.337.337,0,0,0,.337-.337V4.462Zm4.922-3.446L14.636.675l-.246.994-1.022.341Zm-2.526.843,1.022-.341-.246.994-1.022.341ZM7.691,5.1A.514.514,0,1,1,8.2,4.581.514.514,0,0,1,7.691,5.1ZM8.562,2.7l1.022-.341-.246.994L8.316,3.7Zm1,2.9H8.488l.548-.865h1.078ZM11.7,4.734h1.078l-.548.865H11.151Zm-.265,4.182V6.633l1.818,1.141ZM14.892,5.6H13.814l.548-.865H15.44Z" transform="translate(-6.683 0.001)" fill="rgba(255,255,255,0.9)"/>
</svg>
