<svg id="portfolio" xmlns="http://www.w3.org/2000/svg" width="8.013" height="10.25" viewBox="0 0 8.013 10.25">
  <path id="Path_165" data-name="Path 165" d="M99.315,89.658a.741.741,0,1,0-.741-.741A.741.741,0,0,0,99.315,89.658Zm0,0" transform="translate(-96.278 -86.122)" fill="rgba(255,255,255,0.9)"/>
  <path id="Path_166" data-name="Path 166" d="M253.279,13.761h1.581L253,11.848v1.637a.277.277,0,0,0,.277.276Zm0,0" transform="translate(-247.106 -11.572)" fill="rgba(255,255,255,0.9)"/>
  <path id="Path_167" data-name="Path 167" d="M71.865,193.193a1.2,1.2,0,0,0-1.2-1.192h-.47A1.193,1.193,0,0,0,69,193.193v.112h2.865Zm0,0" transform="translate(-67.393 -187.528)" fill="rgba(255,255,255,0.9)"/>
  <path id="Path_168" data-name="Path 168" d="M5.52,1.913V0H.75A.753.753,0,0,0,0,.748V9.5a.753.753,0,0,0,.751.748H7.262A.753.753,0,0,0,8.013,9.5V2.562H6.172a.65.65,0,0,1-.652-.648ZM3.037,1.681A1.114,1.114,0,1,1,1.923,2.795,1.114,1.114,0,0,1,3.037,1.681Zm-1.8,3.984A1.561,1.561,0,0,1,2.791,4.1h.478A1.571,1.571,0,0,1,4.845,5.665v.295a.2.2,0,0,1-.2.19H1.42a.189.189,0,0,1-.186-.19Zm.019,1.6h3.21a.186.186,0,0,1,0,.373H1.253a.186.186,0,0,1,0-.373ZM6.8,8.712a.186.186,0,0,1-.186.186H1.253a.186.186,0,0,1,0-.373H6.616A.186.186,0,0,1,6.8,8.712Zm0,0" transform="translate(0.001)" fill="rgba(255,255,255,0.9)"/>
</svg>
