<svg xmlns="http://www.w3.org/2000/svg" xmlns:xlink="http://www.w3.org/1999/xlink" width="51" height="62" viewBox="0 0 51 62">
  <defs>
    <clipPath id="clip-path">
      <rect id="Rectangle_9" data-name="Rectangle 9" width="51" height="62" rx="11" transform="translate(-0.313)" fill="#fff" stroke="#707070" stroke-width="1"/>
    </clipPath>
  </defs>
  <g id="Mask_Group_1" data-name="Mask Group 1" transform="translate(0.313)" clip-path="url(#clip-path)">
    <g id="cv_color" transform="translate(3.192 -0.711)">
      <path id="Path_113" data-name="Path 113" d="M55.571,6.452H39.55a3,3,0,0,1-6.008,0H17.52a3,3,0,0,0-3,3v52.07a3,3,0,0,0,3,3H55.571a3,3,0,0,0,3-3V9.456A3,3,0,0,0,55.571,6.452Z" transform="translate(-14.516 -2.446)" fill="#f0c087"/>
      <path id="Path_114" data-name="Path 114" d="M55.793,8.454H49.785a1,1,0,0,1-1-1v-1H40.773a3,3,0,0,1-6.008,0H26.754v1a1,1,0,0,1-1,1H19.745a2,2,0,0,0-2,2V58.521a2,2,0,0,0,2,2H55.793a2,2,0,0,0,2-2V10.457A2,2,0,0,0,55.793,8.454Z" transform="translate(-15.739 -2.446)" fill="#e6af78"/>
      <path id="Path_115" data-name="Path 115" d="M56.015,60.968H21.969a1,1,0,0,1-1-1V13.9a1,1,0,0,1,1-1H56.015a1,1,0,0,1,1,1V59.967A1,1,0,0,1,56.015,60.968Z" transform="translate(-16.962 -4.893)" fill="#fff"/>
      <path id="Path_116" data-name="Path 116" d="M51.505,2H47.946a3.973,3.973,0,0,0-6.9,0H37.487a2,2,0,0,0-2,2V8.011a1,1,0,0,0,1,1H52.507a1,1,0,0,0,1-1V4.005A2,2,0,0,0,51.505,2ZM44.5,5.507a1.5,1.5,0,1,1,1.5-1.5A1.5,1.5,0,0,1,44.5,5.507Z" transform="translate(-22.466)" fill="#c7cfe2"/>
      <path id="Path_117" data-name="Path 117" d="M52.507,13.293H36.485a1,1,0,0,1-1-1h0a1,1,0,0,1,1-1H52.507a1,1,0,0,1,1,1h0A1,1,0,0,1,52.507,13.293Z" transform="translate(-22.466 -4.281)" fill="#afb9d2"/>
      <path id="Path_118" data-name="Path 118" d="M54.227,26.586H64.241a1,1,0,0,0,1-1v-2a1,1,0,0,0-1-1H54.227a1,1,0,0,0-1,1v2A1,1,0,0,0,54.227,26.586Z" transform="translate(-29.193 -8.562)" fill="#00aaf0"/>
      <path id="Path_119" data-name="Path 119" d="M64.241,35.874H54.227a1,1,0,1,1,0-2H64.241a1,1,0,1,1,0,2Z" transform="translate(-29.193 -12.843)" fill="#959cb5"/>
      <path id="Path_120" data-name="Path 120" d="M58.232,42.325H54.227a1,1,0,1,1,0-2h4.005a1,1,0,1,1,0,2Z" transform="translate(-29.193 -15.289)" fill="#afb9d2"/>
      <path id="Path_121" data-name="Path 121" d="M54.456,55.229H28.421a1,1,0,1,1,0-2H54.456a1,1,0,1,1,0,2Z" transform="translate(-19.408 -20.182)" fill="#c7cfe2"/>
      <g id="Group_5" data-name="Group 5" transform="translate(8.011 37.05)">
        <path id="Path_122" data-name="Path 122" d="M30.423,61.68h-2a1,1,0,1,1,0-2h2a1,1,0,1,1,0,2Z" transform="translate(-27.419 -59.678)" fill="#00aaf0"/>
        <path id="Path_123" data-name="Path 123" d="M30.423,81.035h-2a1,1,0,0,1,0-2h2a1,1,0,0,1,0,2Z" transform="translate(-27.419 -67.016)" fill="#00aaf0"/>
        <path id="Path_124" data-name="Path 124" d="M30.423,74.583h-2a1,1,0,1,1,0-2h2a1,1,0,0,1,0,2Z" transform="translate(-27.419 -64.57)" fill="#00aaf0"/>
        <path id="Path_125" data-name="Path 125" d="M30.423,68.132h-2a1,1,0,1,1,0-2h2a1,1,0,1,1,0,2Z" transform="translate(-27.419 -62.124)" fill="#00aaf0"/>
      </g>
      <path id="Path_126" data-name="Path 126" d="M44.106,61.68H38.1a1,1,0,1,1,0-2h6.008a1,1,0,0,1,0,2Z" transform="translate(-23.078 -22.628)" fill="#c7cfe2"/>
      <path id="Path_127" data-name="Path 127" d="M48.111,81.035H38.1a1,1,0,0,1,0-2H48.111a1,1,0,0,1,0,2Z" transform="translate(-23.078 -29.966)" fill="#afb9d2"/>
      <path id="Path_128" data-name="Path 128" d="M44.106,74.583H38.1a1,1,0,1,1,0-2h6.008a1,1,0,0,1,0,2Z" transform="translate(-23.078 -27.52)" fill="#c7cfe2"/>
      <path id="Path_129" data-name="Path 129" d="M48.111,68.132H38.1a1,1,0,1,1,0-2H48.111a1,1,0,1,1,0,2Z" transform="translate(-23.078 -25.074)" fill="#afb9d2"/>
      <g id="Group_6" data-name="Group 6" transform="translate(29.039 37.05)">
        <path id="Path_130" data-name="Path 130" d="M67.3,68.132H62.292a1,1,0,1,1,0-2H67.3a1,1,0,1,1,0,2Z" transform="translate(-61.29 -62.124)" fill="#e4eaf8"/>
        <path id="Path_131" data-name="Path 131" d="M67.3,61.68H62.292a1,1,0,1,1,0-2H67.3a1,1,0,1,1,0,2Z" transform="translate(-61.29 -59.678)" fill="#e4eaf8"/>
        <path id="Path_132" data-name="Path 132" d="M67.3,74.583H62.292a1,1,0,0,1,0-2H67.3a1,1,0,1,1,0,2Z" transform="translate(-61.29 -64.57)" fill="#e4eaf8"/>
        <path id="Path_133" data-name="Path 133" d="M67.3,81.035H62.292a1,1,0,0,1,0-2H67.3a1,1,0,0,1,0,2Z" transform="translate(-61.29 -67.016)" fill="#e4eaf8"/>
      </g>
      <path id="Path_134" data-name="Path 134" d="M39.942,37.942,37.6,36.769a1,1,0,0,1-.554-.9v-2H33.038v2a1,1,0,0,1-.554.9l-2.345,1.172a2,2,0,0,0-1.107,1.791v2.149a1,1,0,0,0,1,1H40.047a1,1,0,0,0,1-1V39.733A2,2,0,0,0,39.942,37.942Z" transform="translate(-20.02 -12.843)" fill="#e6af78"/>
      <path id="Path_135" data-name="Path 135" d="M35.365,33.871v2a.993.993,0,0,1-.194.58,5.933,5.933,0,0,0,4.393,0,.994.994,0,0,1-.194-.58v-2Z" transform="translate(-22.348 -12.843)" fill="#d29b6e"/>
      <path id="Path_136" data-name="Path 136" d="M39.941,39.87l-1.826-.913a3.956,3.956,0,0,1-6.149,0l-1.826.913a2,2,0,0,0-1.107,1.791V43.81a1,1,0,0,0,1,1H40.047a1,1,0,0,0,1-1V41.661A2,2,0,0,0,39.941,39.87Z" transform="translate(-20.02 -14.771)" fill="#00aaf0"/>
      <g id="Group_7" data-name="Group 7" transform="translate(9.012 25.966)">
        <path id="Path_137" data-name="Path 137" d="M32.036,44.9a2,2,0,0,0-.8-1.6l-1.961-1.471a1.986,1.986,0,0,0-.242.924V44.9a1,1,0,0,0,1,1h2Z" transform="translate(-29.032 -41.825)" fill="#0096dc"/>
        <path id="Path_138" data-name="Path 138" d="M43.548,44.9a2,2,0,0,1,.8-1.6l1.961-1.471a1.986,1.986,0,0,1,.242.924V44.9a1,1,0,0,1-1,1h-2v-1Z" transform="translate(-34.536 -41.825)" fill="#0096dc"/>
      </g>
      <path id="Path_139" data-name="Path 139" d="M36.263,29.98h0a4.005,4.005,0,0,1-4.005-4.005v-2a3,3,0,0,1,3-3h2a3,3,0,0,1,3,3v2A4.005,4.005,0,0,1,36.263,29.98Z" transform="translate(-21.243 -7.95)" fill="#f0c087"/>
      <path id="Path_140" data-name="Path 140" d="M35.262,25.974v-2a3,3,0,0,1,2.5-2.954,2.989,2.989,0,0,0-.5-.05h-2a3,3,0,0,0-3,3v2a4,4,0,0,0,5.507,3.708A4,4,0,0,1,35.262,25.974Z" transform="translate(-21.243 -7.95)" fill="#e6af78"/>
      <path id="Path_141" data-name="Path 141" d="M32.258,23.972a27.71,27.71,0,0,0,8.011,1v-1a3,3,0,0,0-3-3h-2a3,3,0,0,0-3,3Z" transform="translate(-21.243 -7.95)" fill="#694b4b"/>
      <path id="Path_142" data-name="Path 142" d="M35.262,23.972a3,3,0,0,1,2.5-2.954,2.989,2.989,0,0,0-.5-.05h-2a3,3,0,0,0-3,3,19.917,19.917,0,0,0,3,.644Z" transform="translate(-21.243 -7.95)" fill="#5a4146"/>
    </g>
  </g>
</svg>
